<svg width="1002" height="320" viewBox="0 0 1002 320" fill="none" xmlns="http://www.w3.org/2000/svg">
<g clip-path="url(#clip0_14_2)">
<path d="M1001.63 534.664V260.314C1001.63 206.57 989.72 181.817 984.717 171.821C980.944 164.312 961.844 127.915 942.942 91.8847C924.039 55.8543 924.039 23.0685 923.086 8.65105C922.133 -5.76634 918.122 -89 918.122 -89H-64.5588C-64.5588 -89 -63.566 -5.76632 -64.5588 8.65108C-65.5515 23.0685 -64.5588 59.38 -64.5588 91.8847C-64.5588 123.102 -64.5588 171.821 -64.5588 171.821C-64.5588 171.821 -64.5588 206.57 -64.5588 260.314C-64.5588 314.059 -64.5588 534.664 -64.5588 534.664H1001.63Z" fill="#B0093F"/>
</g>
<defs>
<clipPath id="clip0_14_2">
<rect width="1002" height="320" fill="white"/>
</clipPath>
</defs>
</svg>
