<svg xmlns="http://www.w3.org/2000/svg" width="1024" height="1024" style="shape-rendering:geometricPrecision;text-rendering:geometricPrecision;image-rendering:optimizeQuality;fill-rule:evenodd;clip-rule:evenodd"><path fill="#fefefe" d="M-.5-.5h1024v1024H-.5V-.5Z" style="opacity:1"/><path fill="#040505" d="M479.5 529.5a78.63 78.63 0 0 1 2-15c7.9-35.986 26.9-64.486 57-85.5 10.383-6.743 21.716-9.41 34-8 11.036 2.059 16.703 8.725 17 20-4.59 26.248-18.257 46.248-41 60-10.778 4.956-22.111 7.623-34 8-4.571 10.699-6.071 21.866-4.5 33.5 3.771 9.275 10.605 12.442 20.5 9.5l6-2c13.97-7.967 26.137-18.134 36.5-30.5l21-28c20.411-53.49 46.078-104.157 77-152 12.891-18.945 28.391-35.445 46.5-49.5 10.838-7.058 22.671-11.558 35.5-13.5 16.466 2.214 22.466 11.548 18 28-4.194 14.386-10.527 27.719-19 40a566.15 566.15 0 0 1-20 25 5651.149 5651.149 0 0 1-91 88 67.876 67.876 0 0 0-7 12L612.5 524c-3.119 7.687-3.619 15.52-1.5 23.5 5.257 6.095 11.09 6.595 17.5 1.5 17.2-14.864 31.033-32.364 41.5-52.5a2404.014 2404.014 0 0 0 34.5-72.5 150.545 150.545 0 0 1 30 .5 7934.42 7934.42 0 0 0-50.5 108c-1.806 4.878-2.473 9.878-2 15 1.393 2.866 3.726 4.199 7 4 6.837-1.255 12.504-4.588 17-10 28.66-34.644 49.493-73.644 62.5-117a157.135 157.135 0 0 1 25-1c-1.394 16.515-6.394 31.848-15 46l1 1a1631.24 1631.24 0 0 1 33-35.5 70.203 70.203 0 0 1 16-12c7.183-2.936 14.516-3.27 22-1 3.332 2.491 5.832 5.658 7.5 9.5a72.311 72.311 0 0 1-2 26 3347.486 3347.486 0 0 1-31 71 69.945 69.945 0 0 0-4.5 17c-.162 5.004 2.171 6.838 7 5.5a41.056 41.056 0 0 0 9-6 185.915 185.915 0 0 0 24.5-31.5c8.26-35.386 27.093-63.552 56.5-84.5 11.707-7.762 24.373-10.096 38-7 5.833 1.833 9.667 5.667 11.5 11.5 1.024 14.598-2.642 27.931-11 40-9.534 14.535-22.368 25.035-38.5 31.5a99.528 99.528 0 0 1-23 4c-7.121 13.271-7.621 26.771-1.5 40.5 6.019 5.259 12.852 6.425 20.5 3.5 14.725-6.047 27.225-15.214 37.5-27.5a255.213 255.213 0 0 0 24.5-35c3.498.686 4.665 2.686 3.5 6-12.919 29.012-33.086 51.512-60.5 67.5-14.736 7.164-29.403 7.164-44 0-10.123-8.322-15.29-19.155-15.5-32.5-7.526 11.519-16.359 22.019-26.5 31.5-10.338 6.857-21.338 8.19-33 4-7.834-7.117-10.667-15.951-8.5-26.5a149.174 149.174 0 0 1 10-29c9.94-20.88 19.607-41.88 29-63 1.608-6.669-.892-9.836-7.5-9.5a54.336 54.336 0 0 0-17.5 12.5c-30.451 34.351-52.285 73.684-65.5 118h-29c3.219-14.397 8.052-28.063 14.5-41a194.865 194.865 0 0 1-25.5 30.5c-6.432 6.216-14.099 9.716-23 10.5-11.001-.166-18.168-5.499-21.5-16a145.29 145.29 0 0 1 0-22c-8.757 12.092-18.924 22.926-30.5 32.5-20.81 11.501-34.643 6.001-41.5-16.5-.76-9.113-.427-18.113 1-27-13.12 19.125-29.954 33.958-50.5 44.5-14.419 6.488-28.419 5.821-42-2-9.424-9.099-13.424-20.265-12-33.5Z" style="opacity:1"/><path fill="#fcfcfc" d="M752.5 287.5c7.478-1.612 11.811 1.221 13 8.5a66.957 66.957 0 0 1-6.5 22.5c-9.114 17.903-20.448 34.236-34 49a1376.88 1376.88 0 0 1-78 75 706.54 706.54 0 0 1 59-108c12.415-18.914 27.915-34.581 46.5-47Z" style="opacity:1"/><path fill="#891120" d="M345.5 362.5c12.105-2.227 18.771 2.773 20 15-.895 16.735-9.562 24.902-26 24.5a29.517 29.517 0 0 1-4.5-2.5c-7.535-15.502-4.035-27.835 10.5-37Z" style="opacity:1"/><path fill="#060606" d="M732.5 377.5c12.875-1.294 18.375 4.373 16.5 17-4.581 12.538-13.415 17.705-26.5 15.5-7.289-7.707-7.789-15.874-1.5-24.5 3.464-3.305 7.297-5.972 11.5-8Z" style="opacity:1"/><path fill="#fbfbfb" d="M565.5 433.5c7.289-1.375 10.956 1.625 11 9-5.453 26.289-20.786 44.122-46 53.5a37.118 37.118 0 0 1-12 1.5c8.041-19.083 18.874-36.416 32.5-52 4.259-4.854 9.092-8.854 14.5-12ZM944.5 433.5c7.661-1.662 11.327 1.338 11 9a27.86 27.86 0 0 1-1.5 9c-11.675 23.85-30.175 39.517-55.5 47l-2-1c10.386-25.696 26.386-47.029 48-64Z" style="opacity:1"/><path fill="#88101f" d="M481.5 514.5a78.63 78.63 0 0 0-2 15 382.224 382.224 0 0 1-26 31.5c-11.441 10.092-24.108 12.092-38 6-6.145-5.225-8.812-11.891-8-20a59.6 59.6 0 0 1 1.5-12.5 1024.134 1024.134 0 0 1 35-81c1.213-3.268 1.546-6.601 1-10-2.285-3.425-5.118-3.925-8.5-1.5a245.132 245.132 0 0 0-43.5 47.5c-15.82 24.644-28.154 50.977-37 79a221.957 221.957 0 0 1-29.5 1 257.987 257.987 0 0 1 15-43.5l-1-.5c-10.787 15.952-23.787 29.786-39 41.5-20.444 7.777-31.778.777-34-21a164.246 164.246 0 0 1 2.5-16.5 1501.75 1501.75 0 0 1 21.5-53 96.438 96.438 0 0 1-17 7.5c-4.15.498-8.15.164-12-1-11.443 29.425-28.443 55.092-51 77-8.612 7.649-18.612 10.649-30 9-9.005-3.007-14.505-9.173-16.5-18.5-2.313-11.138-1.813-22.138 1.5-33l-1-3a706.734 706.734 0 0 1-19.5 30c-6.167 7.5-13 14.333-20.5 20.5-11.076 5.963-22.076 5.963-33 0-3.35-3.532-5.516-7.699-6.5-12.5-.472-16.117 2.861-31.45 10-46a680.16 680.16 0 0 0 28-64c1.358-5.531.191-10.365-3.5-14.5-2.757-.584-5.423-.25-8 1-22.12 12.119-38.786 29.452-50 52a96.346 96.346 0 0 0-1.5 11.5c-2.04.923-4.208 1.256-6.5 1-.954-11.644 1.88-22.311 8.5-32 13.35-21.687 31.85-37.187 55.5-46.5 11.376-4.078 22.042-2.745 32 4 5.352 8.159 6.519 16.992 3.5 26.5a413.777 413.777 0 0 1-13 38 1064.076 1064.076 0 0 0-26 56c-2.311 10.367 1.189 13.2 10.5 8.5a236.309 236.309 0 0 0 32.5-40.5 1251.575 1251.575 0 0 1 24-41 509.643 509.643 0 0 1 16-41c9.875-2.154 18.709.013 26.5 6.5A460.358 460.358 0 0 0 194 532.5c-2.608 24.253 4.725 27.586 22 10 15.374-19.248 27.207-40.581 35.5-64-3.764-3.192-6.264-7.192-7.5-12-4.706-16.256-2.706-31.589 6-46 10.615-11.771 18.949-10.438 25 4a42.479 42.479 0 0 1 0 13c-4.007 12.38-5.674 25.047-5 38 .956 1.394 2.289 2.061 4 2a36.615 36.615 0 0 0 11.5-5.5c14.594-13.173 24.927-29.173 31-48 10.328-.5 20.661-.666 31-.5a355.172 355.172 0 0 1-9.5 24 2948.609 2948.609 0 0 0-37 79c-3.581 7.651-4.915 15.651-4 24 .68 2.013 2.013 3.346 4 4a27.092 27.092 0 0 0 9.5-5.5l17.5-19.5 37-56c8.963-15.262 15.129-31.595 18.5-49a183.078 183.078 0 0 1 27-1 72.273 72.273 0 0 1-1.5 16 188.751 188.751 0 0 1-10 24c-.667 1-.667 2 0 3a328.872 328.872 0 0 1 29.5-31.5c7.774-6.222 16.44-10.889 26-14 13.042-2.729 20.875 2.438 23.5 15.5.777 7.232-.223 14.232-3 21a3020.08 3020.08 0 0 1-31 67c-10.218 33.333-3.218 37 21 11 5.745-6.9 11.245-13.9 16.5-21Z" style="opacity:1"/><path fill="#050606" d="M654.5 605.5c26.802-.567 53.135 2.599 79 9.5 19.138 6.176 35.304 16.676 48.5 31.5 18.754 35.409 10.588 62.909-24.5 82.5-17.966 7.395-36.299 8.395-55 3-11.924-3.929-20.757-11.429-26.5-22.5-.667-1.667-.667-3.333 0-5 15.273 16.426 34.106 22.926 56.5 19.5 22.129-3.133 36.629-15.299 43.5-36.5 1.853-16.465-3.647-29.965-16.5-40.5-15.982-12.999-34.316-20.332-55-22-33.544-3.014-66.211.986-98 12a872.405 872.405 0 0 0-31 12 1628.89 1628.89 0 0 1-83 43 232.366 232.366 0 0 1-59 18c-21.048 4.326-40.714.992-59-10-7.921-6.578-13.421-14.745-16.5-24.5a25.238 25.238 0 0 1 0-10c6.469 11.805 16.303 18.972 29.5 21.5 17.916 1.621 35.582.288 53-4a425.455 425.455 0 0 0 38-13 3508.021 3508.021 0 0 0 71-35c33.289-16.493 68.289-26.326 105-29.5Z" style="opacity:1"/></svg>