<?xml version="1.0" encoding="UTF-8"?>
<!DOCTYPE svg PUBLIC "-//W3C//DTD SVG 1.1//EN" "http://www.w3.org/Graphics/SVG/1.1/DTD/svg11.dtd">
<svg xmlns="http://www.w3.org/2000/svg" version="1.1" width="1024px" height="1024px" style="shape-rendering:geometricPrecision; text-rendering:geometricPrecision; image-rendering:optimizeQuality; fill-rule:evenodd; clip-rule:evenodd" xmlns:xlink="http://www.w3.org/1999/xlink">
<g><path style="opacity:1" fill="#fefefd" d="M -0.5,-0.5 C 340.833,-0.5 682.167,-0.5 1023.5,-0.5C 1023.5,340.833 1023.5,682.167 1023.5,1023.5C 682.167,1023.5 340.833,1023.5 -0.5,1023.5C -0.5,682.167 -0.5,340.833 -0.5,-0.5 Z"/></g>
<g><path style="opacity:1" fill="#040404" d="M 868.5,554.5 C 868.824,550.445 868.491,546.445 867.5,542.5C 866.893,542.624 866.56,542.957 866.5,543.5C 856.614,559.886 843.28,572.719 826.5,582C 804.938,586.444 795.438,577.611 798,555.5C 800.928,543.311 805.261,531.645 811,520.5C 821.138,504.89 829.138,488.223 835,470.5C 835.76,466.775 835.593,463.108 834.5,459.5C 831.792,457.564 828.792,457.064 825.5,458C 819.356,460.907 813.689,464.574 808.5,469C 787.129,490.37 769.629,514.537 756,541.5C 748.616,556.165 742.116,571.165 736.5,586.5C 728.614,586.972 720.947,585.972 713.5,583.5C 719.671,570.172 725.505,556.839 731,543.5C 718.39,558.447 704.223,571.614 688.5,583C 670.591,589.057 661.258,582.723 660.5,564C 661.296,556.367 662.463,548.867 664,541.5C 655.369,555.141 644.869,567.308 632.5,578C 621.518,587.136 609.518,588.803 596.5,583C 588.085,576.129 584.085,567.129 584.5,556C 585.091,549.733 585.924,543.566 587,537.5C 572.103,557.006 553.603,571.84 531.5,582C 510.114,589.549 494.947,583.049 486,562.5C 484.854,554.885 484.188,547.218 484,539.5C 483.051,541.093 481.885,542.426 480.5,543.5C 481.623,541.021 481.623,538.688 480.5,536.5C 485.191,529.15 488.691,521.15 491,512.5C 502.964,484.538 522.464,463.705 549.5,450C 560.082,444.64 570.749,444.307 581.5,449C 587.437,453.811 589.604,459.978 588,467.5C 586.994,473.518 584.994,479.184 582,484.5C 568.559,502.269 551.392,515.102 530.5,523C 523.275,524.816 515.941,525.649 508.5,525.5C 507.337,531.487 506.171,537.487 505,543.5C 503.236,569.408 514.736,578.575 539.5,571C 559.461,560.04 575.961,545.206 589,526.5C 604.857,483.118 623.19,440.784 644,399.5C 661.559,369.102 682.392,341.102 706.5,315.5C 716.975,305.096 728.975,296.929 742.5,291C 766.486,286.487 775.319,295.987 769,319.5C 763.433,335.302 755.767,349.968 746,363.5C 728.31,386.528 708.477,407.695 686.5,427C 669.426,441.619 652.259,456.119 635,470.5C 625.227,491.38 616.561,512.713 609,534.5C 605.816,544.896 605.816,555.229 609,565.5C 612.822,571.041 617.989,572.874 624.5,571C 634.785,566.056 643.285,558.89 650,549.5C 669.889,523.079 686.222,494.412 699,463.5C 700.632,458.97 701.632,454.304 702,449.5C 711.422,448.349 720.922,448.182 730.5,449C 712.124,482.258 696.29,516.758 683,552.5C 678.286,570.136 683.786,574.636 699.5,566C 717.19,549.648 732.69,531.481 746,511.5C 754.769,493.963 762.436,475.963 769,457.5C 769.497,454.854 769.664,452.187 769.5,449.5C 775.752,447.941 782.085,447.441 788.5,448C 789.98,449.299 790.646,450.966 790.5,453C 789.57,457.554 788.403,462.054 787,466.5C 782.93,477.276 778.93,487.943 775,498.5C 781.949,488.549 789.283,478.883 797,469.5C 807.033,457.733 819.533,449.9 834.5,446C 844.071,445.035 851.571,448.535 857,456.5C 859.166,465.016 858.499,473.349 855,481.5C 848.778,494.946 841.778,507.946 834,520.5C 828.178,531.143 823.178,542.143 819,553.5C 818.046,573.124 825.546,576.957 841.5,565C 858.324,549.836 869.824,531.336 876,509.5C 886.807,486.357 902.974,467.857 924.5,454C 932.759,449.358 941.593,446.525 951,445.5C 966.423,446.253 973.09,454.253 971,469.5C 968.495,479.513 963.662,488.18 956.5,495.5C 942.307,510.766 924.973,520.6 904.5,525C 900.514,525.499 896.514,525.666 892.5,525.5C 890.075,533.128 888.742,540.962 888.5,549C 888.658,567.83 897.991,575.83 916.5,573C 927.378,569.772 937.045,564.439 945.5,557C 959.589,544.247 972.255,530.247 983.5,515C 984.448,514.517 985.448,514.351 986.5,514.5C 986.245,517.016 985.411,519.35 984,521.5C 966.172,547.327 943.339,567.494 915.5,582C 894.871,588.928 879.704,582.761 870,563.5C 869.304,560.522 868.804,557.522 868.5,554.5 Z"/></g>
<g><path style="opacity:1" fill="#fcfcfc" d="M 748.5,297.5 C 759.039,295.218 764.372,299.385 764.5,310C 764.099,315.314 762.933,320.481 761,325.5C 756.857,334.454 752.19,343.12 747,351.5C 728.396,376.783 707.562,400.283 684.5,422C 670.093,434.618 655.593,447.118 641,459.5C 658.228,408.359 684.228,362.359 719,321.5C 727.305,311.335 737.139,303.335 748.5,297.5 Z"/></g>
<g><path style="opacity:1" fill="#820210" d="M 360.5,389.5 C 363.822,390.658 365.988,392.992 367,396.5C 367.965,410.216 361.798,419.05 348.5,423C 345.833,423.667 343.167,423.667 340.5,423C 338.119,422.777 336.453,421.61 335.5,419.5C 330.904,406.852 334.571,397.352 346.5,391C 351.085,389.775 355.752,389.275 360.5,389.5 Z"/></g>
<g><path style="opacity:1" fill="#751e1e" d="M 360.5,389.5 C 355.752,389.275 351.085,389.775 346.5,391C 334.571,397.352 330.904,406.852 335.5,419.5C 331.774,415.616 330.607,410.949 332,405.5C 337.277,391.96 346.777,386.627 360.5,389.5 Z"/></g>
<g><path style="opacity:1" fill="#040404" d="M 731.5,400.5 C 745.532,400.886 749.698,407.553 744,420.5C 737.356,427.956 729.522,429.456 720.5,425C 715.642,416.882 716.976,409.882 724.5,404C 726.925,402.787 729.259,401.621 731.5,400.5 Z"/></g>
<g><path style="opacity:1" fill="#fbfbfb" d="M 568.5,451.5 C 576.642,451.481 579.808,455.481 578,463.5C 570.715,484.889 557.548,501.723 538.5,514C 530.35,518.67 521.684,520.504 512.5,519.5C 521.663,498.002 534.663,479.169 551.5,463C 556.819,458.491 562.485,454.657 568.5,451.5 Z"/></g>
<g><path style="opacity:1" fill="#fbfbfb" d="M 951.5,451.5 C 959.982,451.765 963.149,456.099 961,464.5C 953.438,485.45 940.271,501.95 921.5,514C 913.456,518.808 904.789,520.808 895.5,520C 905.303,497.061 919.303,477.061 937.5,460C 942.097,456.877 946.763,454.043 951.5,451.5 Z"/></g>
<g><path style="opacity:1" fill="#800410" d="M 255.5,500.5 C 251.224,483.365 252.724,466.698 260,450.5C 262.04,448.63 263.873,446.63 265.5,444.5C 268.293,441.914 271.126,441.914 274,444.5C 275.889,454.781 275.889,465.114 274,475.5C 271.657,484.693 268.824,493.693 265.5,502.5C 266.871,503.787 268.705,504.453 271,504.5C 275.079,504.314 279.079,503.647 283,502.5C 284.376,502.684 285.209,503.351 285.5,504.5C 283.438,505.776 281.104,506.61 278.5,507C 273.136,507.171 267.802,507.671 262.5,508.5C 252.757,526.992 242.257,544.992 231,562.5C 224.003,570.839 215.836,577.673 206.5,583C 197.231,586.998 187.898,587.331 178.5,584C 173.379,579.26 170.212,573.427 169,566.5C 168.333,559.5 168.333,552.5 169,545.5C 170.116,542.18 170.783,538.847 171,535.5C 162.554,550.538 152.054,564.038 139.5,576C 131.426,583.019 122.093,585.686 111.5,584C 104.914,581.371 100.747,576.538 99,569.5C 97.5452,562.556 97.2119,555.556 98,548.5C 100.47,536.614 104.47,525.28 110,514.5C 118.656,500.854 125.99,486.521 132,471.5C 132.667,465.5 132.667,459.5 132,453.5C 129.04,447.273 124.04,444.607 117,445.5C 110.335,446.075 104.168,448.241 98.5,452C 78.3684,466.941 63.3684,485.775 53.5,508.5C 52.3526,506.235 52.1859,503.902 53,501.5C 64.1033,472.064 84.2699,451.564 113.5,440C 129.557,434.356 142.723,438.189 153,451.5C 157.413,461.432 157.413,471.432 153,481.5C 144.439,498.29 135.106,514.623 125,530.5C 121.94,537.68 119.273,545.014 117,552.5C 114.307,571.856 121.14,576.69 137.5,567C 151.88,553.389 163.713,537.889 173,520.5C 182.605,501.623 191.939,482.623 201,463.5C 205.258,459.291 210.092,455.958 215.5,453.5C 217.747,454.374 220.08,454.708 222.5,454.5C 222.464,458.979 221.631,463.312 220,467.5C 212.607,483.954 204.94,500.287 197,516.5C 191.683,528.283 188.517,540.617 187.5,553.5C 188.627,574.563 197.96,579.396 215.5,568C 233.439,549.468 247.105,528.135 256.5,504C 256.011,502.862 255.678,501.695 255.5,500.5 Z"/></g>
<g><path style="opacity:1" fill="#7c0610" d="M 456.5,446.5 C 450.239,446.747 444.239,448.414 438.5,451.5C 437.165,453.647 437.331,455.647 439,457.5C 447.379,454.216 451.879,457.049 452.5,466C 451.499,469.678 450.499,473.345 449.5,477C 450.667,477.5 451.5,478.333 452,479.5C 453,477.833 454,476.167 455,474.5C 455.333,474.833 455.667,475.167 456,475.5C 456.49,474.207 456.657,472.873 456.5,471.5C 457.822,471.33 458.989,471.663 460,472.5C 461.449,471.386 462.783,470.386 464,469.5C 465.566,468.939 466.899,469.606 468,471.5C 468.915,470.672 469.581,469.672 470,468.5C 470.333,469.5 470.667,470.5 471,471.5C 474.617,459.39 470.45,451.723 458.5,448.5C 457.702,448.043 457.369,447.376 457.5,446.5C 470.775,449.705 475.942,458.038 473,471.5C 469.275,484.944 463.442,497.278 455.5,508.5C 459.256,500.235 463.256,492.069 467.5,484C 467.15,482.743 466.483,482.409 465.5,483C 464.283,484.648 463.45,486.481 463,488.5C 462.278,485.118 460.445,484.118 457.5,485.5C 456.749,484.624 456.249,483.624 456,482.5C 454.887,483.76 454.72,484.927 455.5,486C 450.206,487.865 450.206,489.365 455.5,490.5C 455.5,489.5 455.5,488.5 455.5,487.5C 457.167,487.5 458.833,487.5 460.5,487.5C 460.702,489.989 460.202,492.323 459,494.5C 458.683,492.699 458.016,492.366 457,493.5C 456.481,492.484 455.647,491.818 454.5,491.5C 451.577,492.76 448.577,493.26 445.5,493C 446.253,491.513 447.086,491.346 448,492.5C 449.365,491.407 449.699,490.074 449,488.5C 448.667,489.167 448.333,489.833 448,490.5C 447.667,488.833 447.333,487.167 447,485.5C 443.603,490.26 441.437,495.26 440.5,500.5C 441.167,499.5 441.833,498.5 442.5,497.5C 443.23,499.341 443.897,501.175 444.5,503C 443.135,504.682 441.635,504.849 440,503.5C 439,506.167 438,506.167 437,503.5C 435.643,506.898 433.81,509.898 431.5,512.5C 436.912,502.008 442.078,491.342 447,480.5C 449.431,474.019 450.431,467.353 450,460.5C 447.441,457.651 444.274,456.817 440.5,458C 423.469,468.029 409.302,481.196 398,497.5C 392.143,506.565 386.309,515.565 380.5,524.5C 383.95,516.275 388.45,508.608 394,501.5C 394.749,500.365 394.583,499.365 393.5,498.5C 392.614,499.325 392.281,500.325 392.5,501.5C 389.861,501.571 387.694,502.571 386,504.5C 384.566,504.07 383.399,503.236 382.5,502C 383.833,501 383.833,500 382.5,499C 384.749,498.137 386.582,498.637 388,500.5C 391.475,491.134 394.642,481.967 397.5,473C 395.919,472.293 394.419,471.46 393,470.5C 392.667,470.833 392.333,471.167 392,471.5C 391.667,470.167 391.333,468.833 391,467.5C 390.951,472.425 389.118,473.425 385.5,470.5C 384.749,471.376 384.249,472.376 384,473.5C 382.815,471.623 381.815,469.623 381,467.5C 376.181,480.455 370.681,493.122 364.5,505.5C 364.977,506.478 365.643,507.311 366.5,508C 364.947,509.097 363.614,510.43 362.5,512C 363.738,511.923 364.738,512.089 365.5,512.5C 364.478,513.354 363.645,514.354 363,515.5C 362.667,515.167 362.333,514.833 362,514.5C 361.333,516.167 361.333,517.833 362,519.5C 363.018,518.294 363.518,518.627 363.5,520.5C 363.176,522.569 362.342,522.902 361,521.5C 360,522.833 359,524.167 358,525.5C 357.667,525.167 357.333,524.833 357,524.5C 355.807,525.978 355.307,527.312 355.5,528.5C 354.481,527.313 353.314,526.313 352,525.5C 350,528.666 347.5,531.332 344.5,533.5C 363.006,508.214 376.672,480.38 385.5,450C 391.388,448.424 397.388,448.091 403.5,449C 404.176,454.826 403.676,460.66 402,466.5C 398.16,477.699 394.16,488.699 390,499.5C 400.294,483.066 412.794,468.566 427.5,456C 433.221,452.473 439.221,449.473 445.5,447C 449.152,446.501 452.818,446.335 456.5,446.5 Z"/></g>
<g><path style="opacity:1" fill="#830010" d="M 456.5,446.5 C 456.833,446.5 457.167,446.5 457.5,446.5C 457.369,447.376 457.702,448.043 458.5,448.5C 470.45,451.723 474.617,459.39 471,471.5C 470.667,470.5 470.333,469.5 470,468.5C 469.581,469.672 468.915,470.672 468,471.5C 466.899,469.606 465.566,468.939 464,469.5C 462.783,470.386 461.449,471.386 460,472.5C 458.989,471.663 457.822,471.33 456.5,471.5C 456.657,472.873 456.49,474.207 456,475.5C 455.667,475.167 455.333,474.833 455,474.5C 454,476.167 453,477.833 452,479.5C 451.5,478.333 450.667,477.5 449.5,477C 450.499,473.345 451.499,469.678 452.5,466C 451.879,457.049 447.379,454.216 439,457.5C 437.331,455.647 437.165,453.647 438.5,451.5C 444.239,448.414 450.239,446.747 456.5,446.5 Z"/></g>
<g><path style="opacity:1" fill="#660d0f" d="M 265.5,444.5 C 263.873,446.63 262.04,448.63 260,450.5C 252.724,466.698 251.224,483.365 255.5,500.5C 253.871,498.142 252.705,495.476 252,492.5C 250.009,477.413 252.342,463.08 259,449.5C 260.777,447.21 262.944,445.543 265.5,444.5 Z"/></g>
<g><path style="opacity:1" fill="#830010" d="M 455.5,508.5 C 455.672,509.492 455.338,510.158 454.5,510.5C 447.638,519.55 442.305,529.55 438.5,540.5C 437.594,544.901 435.928,548.901 433.5,552.5C 432.883,552.611 432.383,552.944 432,553.5C 430.823,560.637 432.656,566.804 437.5,572C 441.996,572.852 446.33,572.352 450.5,570.5C 450.554,571.53 450.888,572.697 451.5,574C 441.504,583.265 430.504,584.765 418.5,578.5C 414.667,570.663 413.5,562.329 415,553.5C 418.847,539.144 424.347,525.477 431.5,512.5C 433.81,509.898 435.643,506.898 437,503.5C 438,506.167 439,506.167 440,503.5C 441.635,504.849 443.135,504.682 444.5,503C 443.897,501.175 443.23,499.341 442.5,497.5C 441.833,498.5 441.167,499.5 440.5,500.5C 441.437,495.26 443.603,490.26 447,485.5C 447.333,487.167 447.667,488.833 448,490.5C 448.333,489.833 448.667,489.167 449,488.5C 449.699,490.074 449.365,491.407 448,492.5C 447.086,491.346 446.253,491.513 445.5,493C 448.577,493.26 451.577,492.76 454.5,491.5C 455.647,491.818 456.481,492.484 457,493.5C 458.016,492.366 458.683,492.699 459,494.5C 460.202,492.323 460.702,489.989 460.5,487.5C 458.833,487.5 457.167,487.5 455.5,487.5C 455.5,488.5 455.5,489.5 455.5,490.5C 450.206,489.365 450.206,487.865 455.5,486C 454.72,484.927 454.887,483.76 456,482.5C 456.249,483.624 456.749,484.624 457.5,485.5C 460.445,484.118 462.278,485.118 463,488.5C 463.45,486.481 464.283,484.648 465.5,483C 466.483,482.409 467.15,482.743 467.5,484C 463.256,492.069 459.256,500.235 455.5,508.5 Z"/></g>
<g><path style="opacity:1" fill="#830110" d="M 297.5,568.5 C 298.425,570.884 300.258,571.884 303,571.5C 308.515,570.825 313.349,568.658 317.5,565C 324.476,558.868 330.476,552.035 335.5,544.5C 338.129,540.537 341.129,536.871 344.5,533.5C 347.5,531.332 350,528.666 352,525.5C 353.314,526.313 354.481,527.313 355.5,528.5C 355.307,527.312 355.807,525.978 357,524.5C 357.333,524.833 357.667,525.167 358,525.5C 359,524.167 360,522.833 361,521.5C 362.342,522.902 363.176,522.569 363.5,520.5C 363.518,518.627 363.018,518.294 362,519.5C 361.333,517.833 361.333,516.167 362,514.5C 362.333,514.833 362.667,515.167 363,515.5C 363.645,514.354 364.478,513.354 365.5,512.5C 364.738,512.089 363.738,511.923 362.5,512C 363.614,510.43 364.947,509.097 366.5,508C 365.643,507.311 364.977,506.478 364.5,505.5C 370.681,493.122 376.181,480.455 381,467.5C 381.815,469.623 382.815,471.623 384,473.5C 384.249,472.376 384.749,471.376 385.5,470.5C 389.118,473.425 390.951,472.425 391,467.5C 391.333,468.833 391.667,470.167 392,471.5C 392.333,471.167 392.667,470.833 393,470.5C 394.419,471.46 395.919,472.293 397.5,473C 394.642,481.967 391.475,491.134 388,500.5C 386.582,498.637 384.749,498.137 382.5,499C 383.833,500 383.833,501 382.5,502C 383.399,503.236 384.566,504.07 386,504.5C 387.694,502.571 389.861,501.571 392.5,501.5C 392.281,500.325 392.614,499.325 393.5,498.5C 394.583,499.365 394.749,500.365 394,501.5C 388.45,508.608 383.95,516.275 380.5,524.5C 372.815,539.206 365.148,553.872 357.5,568.5C 354.942,573.289 352.608,578.289 350.5,583.5C 343.177,584.524 335.843,584.524 328.5,583.5C 328.5,583.167 328.5,582.833 328.5,582.5C 329.376,582.631 330.043,582.298 330.5,581.5C 336.243,568.35 342.243,555.35 348.5,542.5C 348.03,541.537 347.363,541.537 346.5,542.5C 346.19,541.262 345.69,541.262 345,542.5C 333.459,558.375 319.625,571.875 303.5,583C 293.85,587.463 285.35,585.963 278,578.5C 276.872,576.655 276.372,574.655 276.5,572.5C 276.247,561.597 277.747,550.93 281,540.5C 285.83,526.165 291.33,512.165 297.5,498.5C 296.022,498.762 294.689,498.429 293.5,497.5C 299.446,492.872 303.446,486.872 305.5,479.5C 307.462,474.243 309.962,469.243 313,464.5C 315.044,459.366 316.877,454.199 318.5,449C 327.186,448.168 335.853,448.335 344.5,449.5C 343.498,451.51 342.498,453.51 341.5,455.5C 339.77,456.026 338.436,457.026 337.5,458.5C 338.52,460.432 338.687,462.432 338,464.5C 321.067,493.7 307.401,524.366 297,556.5C 296.306,560.554 296.473,564.554 297.5,568.5 Z"/></g>
<g><path style="opacity:1" fill="#6c1819" d="M 431.5,512.5 C 424.347,525.477 418.847,539.144 415,553.5C 413.5,562.329 414.667,570.663 418.5,578.5C 416.016,576.88 414.516,574.547 414,571.5C 412.71,566.89 412.376,562.223 413,557.5C 416.356,541.246 422.523,526.246 431.5,512.5 Z"/></g>
<g><path style="opacity:1" fill="#701717" d="M 305.5,479.5 C 303.446,486.872 299.446,492.872 293.5,497.5C 294.689,498.429 296.022,498.762 297.5,498.5C 291.33,512.165 285.83,526.165 281,540.5C 277.747,550.93 276.247,561.597 276.5,572.5C 275.173,564.955 275.34,557.288 277,549.5C 281.998,532.349 288.498,515.849 296.5,500C 292.998,501.607 289.331,503.107 285.5,504.5C 285.209,503.351 284.376,502.684 283,502.5C 279.079,503.647 275.079,504.314 271,504.5C 268.705,504.453 266.871,503.787 265.5,502.5C 278.031,503.816 288.865,500.15 298,491.5C 300.275,487.268 302.775,483.268 305.5,479.5 Z"/></g>
<g><path style="opacity:1" fill="#6b1a1a" d="M 454.5,510.5 C 449.163,520.508 443.83,530.508 438.5,540.5C 442.305,529.55 447.638,519.55 454.5,510.5 Z"/></g>
<g><path style="opacity:1" fill="#610a0e" d="M 480.5,536.5 C 481.623,538.688 481.623,541.021 480.5,543.5C 480.155,546.198 478.822,548.198 476.5,549.5C 477.072,547.745 477.906,546.078 479,544.5C 479.667,543.167 479.667,541.833 479,540.5C 475.667,545.167 472.333,549.833 469,554.5C 465.239,558.77 461.072,562.437 456.5,565.5C 465.284,556.392 473.284,546.725 480.5,536.5 Z"/></g>
<g><path style="opacity:1" fill="#595a59" d="M 866.5,543.5 C 866.56,542.957 866.893,542.624 867.5,542.5C 868.491,546.445 868.824,550.445 868.5,554.5C 867.833,550.833 867.167,547.167 866.5,543.5 Z"/></g>
<g><path style="opacity:1" fill="#6a1012" d="M 328.5,582.5 C 334.694,569.25 340.694,555.917 346.5,542.5C 347.363,541.537 348.03,541.537 348.5,542.5C 342.243,555.35 336.243,568.35 330.5,581.5C 330.043,582.298 329.376,582.631 328.5,582.5 Z"/></g>
<g><path style="opacity:1" fill="#61080b" d="M 335.5,544.5 C 330.476,552.035 324.476,558.868 317.5,565C 313.349,568.658 308.515,570.825 303,571.5C 300.258,571.884 298.425,570.884 297.5,568.5C 301.851,571.075 306.184,570.908 310.5,568C 319.661,561.005 327.994,553.171 335.5,544.5 Z"/></g>
<g><path style="opacity:1" fill="#76090f" d="M 476.5,549.5 C 467.441,564.723 454.775,575.89 438.5,583C 433.833,583.667 429.167,583.667 424.5,583C 421.894,582.208 419.894,580.708 418.5,578.5C 430.504,584.765 441.504,583.265 451.5,574C 450.888,572.697 450.554,571.53 450.5,570.5C 446.33,572.352 441.996,572.852 437.5,572C 432.656,566.804 430.823,560.637 432,553.5C 432.383,552.944 432.883,552.611 433.5,552.5C 432.269,572.604 439.936,576.938 456.5,565.5C 461.072,562.437 465.239,558.77 469,554.5C 472.333,549.833 475.667,545.167 479,540.5C 479.667,541.833 479.667,543.167 479,544.5C 477.906,546.078 477.072,547.745 476.5,549.5 Z"/></g>
<g><path style="opacity:1" fill="#761e1c" d="M 357.5,568.5 C 355.5,574.5 353.5,580.5 351.5,586.5C 343.426,586.685 335.426,586.019 327.5,584.5C 327.624,583.893 327.957,583.56 328.5,583.5C 335.843,584.524 343.177,584.524 350.5,583.5C 352.608,578.289 354.942,573.289 357.5,568.5 Z"/></g>
<g><path style="opacity:1" fill="#090a09" d="M 648.5,631.5 C 684.03,629.065 718.363,634.232 751.5,647C 767.559,653.589 779.725,664.423 788,679.5C 793.904,702.119 786.738,719.286 766.5,731C 744.529,739.456 723.195,738.123 702.5,727C 699.115,725.301 696.948,722.801 696,719.5C 712.372,729.639 729.872,732.473 748.5,728C 769.236,722.284 779.736,708.784 780,687.5C 778.885,683.271 777.219,679.271 775,675.5C 766.513,664.007 755.679,655.507 742.5,650C 702.208,634.257 661.208,632.257 619.5,644C 606.526,647.88 593.859,652.546 581.5,658C 557.527,670.154 533.194,681.487 508.5,692C 481.399,702.824 453.399,706.157 424.5,702C 416.518,699.784 408.851,696.784 401.5,693C 397.167,690 393.5,686.333 390.5,682C 396.319,685.253 402.319,688.586 408.5,692C 426.492,698.203 444.825,699.203 463.5,695C 476.809,692.008 489.809,688.008 502.5,683C 531.6,669.783 560.934,657.116 590.5,645C 609.513,638.481 628.846,633.981 648.5,631.5 Z"/></g>
</svg>
