<svg width="1024" height="1024" viewBox="0 0 1024 1024" fill="none" xmlns="http://www.w3.org/2000/svg">
<path fill-rule="evenodd" clip-rule="evenodd" d="M479.5 529.5C479.683 524.447 480.353 519.424 481.5 514.5C489.4 478.514 508.4 450.014 538.5 429C548.883 422.257 560.216 419.59 572.5 421C583.536 423.059 589.203 429.725 589.5 441C584.91 467.248 571.243 487.248 548.5 501C537.722 505.956 526.389 508.623 514.5 509C509.929 519.699 508.429 530.866 510 542.5C513.771 551.775 520.605 554.942 530.5 552L536.5 550C550.47 542.033 562.637 531.866 573 519.5L594 491.5C614.411 438.01 640.078 387.343 671 339.5C683.891 320.555 699.391 304.055 717.5 290C728.338 282.942 740.171 278.442 753 276.5C769.466 278.714 775.466 288.048 771 304.5C766.806 318.886 760.473 332.219 752 344.5C745.57 353.02 738.901 361.357 732 369.5C701.996 399.172 671.661 428.507 641 457.5C638.262 461.25 635.917 465.271 634 469.5L612.5 524C609.381 531.687 608.881 539.52 611 547.5C616.257 553.595 622.09 554.095 628.5 549C645.7 534.136 659.533 516.636 670 496.5C681.903 472.527 693.404 448.357 704.5 424C714.492 423.167 724.542 423.335 734.5 424.5C717.396 460.373 700.563 496.374 684 532.5C682.194 537.378 681.527 542.378 682 547.5C683.393 550.366 685.726 551.699 689 551.5C695.837 550.245 701.504 546.912 706 541.5C734.66 506.856 755.493 467.856 768.5 424.5C776.794 423.503 785.153 423.168 793.5 423.5C792.106 440.015 787.106 455.348 778.5 469.5L779.5 470.5C790.324 458.504 801.325 446.669 812.5 435C817.233 430.257 822.621 426.216 828.5 423C835.683 420.064 843.016 419.73 850.5 422C853.832 424.491 856.332 427.658 858 431.5C858.914 440.216 858.237 449.026 856 457.5C845.941 481.285 835.607 504.954 825 528.5C822.791 533.955 821.279 539.667 820.5 545.5C820.338 550.504 822.671 552.338 827.5 551C830.751 549.406 833.778 547.388 836.5 545C845.773 535.409 853.987 524.849 861 513.5C869.26 478.114 888.093 449.948 917.5 429C929.207 421.238 941.873 418.904 955.5 422C961.333 423.833 965.167 427.667 967 433.5C968.024 448.098 964.358 461.431 956 473.5C946.466 488.035 933.632 498.535 917.5 505C910.017 507.231 902.297 508.574 894.5 509C887.379 522.271 886.879 535.771 893 549.5C899.019 554.759 905.852 555.925 913.5 553C928.225 546.953 940.725 537.786 951 525.5C960.131 514.539 968.326 502.831 975.5 490.5C978.998 491.186 980.165 493.186 979 496.5C966.081 525.512 945.914 548.012 918.5 564C903.764 571.164 889.097 571.164 874.5 564C864.377 555.678 859.21 544.845 859 531.5C851.474 543.019 842.641 553.519 832.5 563C822.162 569.857 811.162 571.19 799.5 567C791.666 559.883 788.833 551.049 791 540.5C793.328 530.515 796.679 520.797 801 511.5C810.94 490.62 820.607 469.62 830 448.5C831.608 441.831 829.108 438.664 822.5 439C815.892 441.959 809.942 446.209 805 451.5C774.549 485.851 752.715 525.184 739.5 569.5H710.5C713.719 555.103 718.552 541.437 725 528.5C717.562 539.509 709.018 549.729 699.5 559C693.068 565.216 685.401 568.716 676.5 569.5C665.499 569.334 658.332 564.001 655 553.5C654.444 546.177 654.444 538.823 655 531.5C646.243 543.592 636.076 554.426 624.5 564C603.69 575.501 589.857 570.001 583 547.5C582.24 538.387 582.573 529.387 584 520.5C570.88 539.625 554.046 554.458 533.5 565C519.081 571.488 505.081 570.821 491.5 563C482.076 553.901 478.076 542.735 479.5 529.5Z" fill="#040505"/>
<path fill-rule="evenodd" clip-rule="evenodd" d="M752.5 287.5C759.978 285.888 764.311 288.721 765.5 296C764.672 303.824 762.472 311.44 759 318.5C749.886 336.403 738.552 352.736 725 367.5C699.993 393.512 673.973 418.532 647 442.5C663.488 404.852 683.23 368.715 706 334.5C718.415 315.586 733.915 299.919 752.5 287.5Z" fill="#FCFCFC"/>
<path fill-rule="evenodd" clip-rule="evenodd" d="M345.5 362.5C357.605 360.273 364.271 365.273 365.5 377.5C364.605 394.235 355.938 402.402 339.5 402C337.93 401.299 336.424 400.463 335 399.5C327.465 383.998 330.965 371.665 345.5 362.5Z" fill="#891120"/>
<path fill-rule="evenodd" clip-rule="evenodd" d="M732.5 377.5C745.375 376.206 750.875 381.873 749 394.5C744.419 407.038 735.585 412.205 722.5 410C715.211 402.293 714.711 394.126 721 385.5C724.464 382.195 728.297 379.528 732.5 377.5Z" fill="#060606"/>
<path fill-rule="evenodd" clip-rule="evenodd" d="M565.5 433.5C572.789 432.125 576.456 435.125 576.5 442.5C571.047 468.789 555.714 486.622 530.5 496C526.609 497.153 522.555 497.659 518.5 497.5C526.541 478.417 537.374 461.084 551 445.5C555.259 440.646 560.092 436.646 565.5 433.5ZM944.5 433.5C952.161 431.838 955.827 434.838 955.5 442.5C955.498 445.562 954.991 448.603 954 451.5C942.325 475.35 923.825 491.017 898.5 498.5L896.5 497.5C906.886 471.804 922.886 450.471 944.5 433.5Z" fill="#FBFBFB"/>
<path fill-rule="evenodd" clip-rule="evenodd" d="M481.5 514.5C480.353 519.424 479.683 524.447 479.5 529.5C471.401 540.456 462.722 550.971 453.5 561C442.059 571.092 429.392 573.092 415.5 567C409.355 561.775 406.688 555.109 407.5 547C407.557 542.792 408.06 538.602 409 534.5C419.498 507.01 431.175 479.985 444 453.5C445.213 450.232 445.546 446.899 445 443.5C442.715 440.075 439.882 439.575 436.5 442C419.974 455.851 405.348 471.822 393 489.5C377.18 514.144 364.846 540.477 356 568.5C346.2 569.488 336.345 569.822 326.5 569.5C330.194 554.582 335.214 540.024 341.5 526L340.5 525.5C329.713 541.452 316.713 555.286 301.5 567C281.056 574.777 269.722 567.777 267.5 546C268.053 540.461 268.888 534.954 270 529.5C276.83 511.698 283.998 494.029 291.5 476.5C286.088 479.541 280.395 482.053 274.5 484C270.35 484.498 266.35 484.164 262.5 483C251.057 512.425 234.057 538.092 211.5 560C202.888 567.649 192.888 570.649 181.5 569C172.495 565.993 166.995 559.827 165 550.5C162.687 539.362 163.187 528.362 166.5 517.5L165.5 514.5C159.254 524.663 152.752 534.666 146 544.5C139.833 552 133 558.833 125.5 565C114.424 570.963 103.424 570.963 92.5 565C89.15 561.468 86.984 557.301 86 552.5C85.528 536.383 88.861 521.05 96 506.5C106.423 485.66 115.769 464.299 124 442.5C125.358 436.969 124.191 432.135 120.5 428C117.743 427.416 115.077 427.75 112.5 429C90.38 441.119 73.714 458.452 62.5 481C61.7695 484.8 61.2686 488.64 61 492.5C58.96 493.423 56.792 493.756 54.5 493.5C53.546 481.856 56.38 471.189 63 461.5C76.35 439.813 94.85 424.313 118.5 415C129.876 410.922 140.542 412.255 150.5 419C155.852 427.159 157.019 435.992 154 445.5C150.284 458.37 145.946 471.051 141 483.5C131.793 501.911 123.123 520.586 115 539.5C112.689 549.867 116.189 552.7 125.5 548C137.788 535.735 148.687 522.153 158 507.5C165.74 493.683 173.741 480.014 182 466.5C186.74 452.609 192.079 438.93 198 425.5C207.875 423.346 216.709 425.513 224.5 432C210.533 464.227 200.3 497.946 194 532.5C191.392 556.753 198.725 560.086 216 542.5C231.374 523.252 243.207 501.919 251.5 478.5C247.736 475.308 245.236 471.308 244 466.5C239.294 450.244 241.294 434.911 250 420.5C260.615 408.729 268.949 410.062 275 424.5C275.667 428.808 275.667 433.192 275 437.5C270.993 449.88 269.326 462.547 270 475.5C270.956 476.894 272.289 477.561 274 477.5C278.125 476.353 282.018 474.492 285.5 472C300.094 458.827 310.427 442.827 316.5 424C326.828 423.5 337.161 423.334 347.5 423.5C344.625 431.612 341.456 439.618 338 447.5C325.278 473.649 312.943 499.986 301 526.5C297.419 534.151 296.085 542.151 297 550.5C297.68 552.513 299.013 553.846 301 554.5C304.509 553.334 307.742 551.462 310.5 549L328 529.5L365 473.5C373.963 458.238 380.129 441.905 383.5 424.5C392.463 423.502 401.488 423.168 410.5 423.5C410.596 428.873 410.093 434.239 409 439.5C406.222 447.72 402.881 455.739 399 463.5C398.333 464.5 398.333 465.5 399 466.5C408.133 455.365 417.988 444.843 428.5 435C436.274 428.778 444.94 424.111 454.5 421C467.542 418.271 475.375 423.438 478 436.5C478.777 443.732 477.777 450.732 475 457.5C464.94 479.959 454.606 502.294 444 524.5C433.782 557.833 440.782 561.5 465 535.5C470.745 528.6 476.245 521.6 481.5 514.5Z" fill="#88101F"/>
<path fill-rule="evenodd" clip-rule="evenodd" d="M654.5 605.5C681.302 604.933 707.635 608.099 733.5 615C752.638 621.176 768.804 631.676 782 646.5C800.754 681.909 792.588 709.409 757.5 729C739.534 736.395 721.201 737.395 702.5 732C690.576 728.071 681.743 720.571 676 709.5C675.333 707.833 675.333 706.167 676 704.5C691.273 720.926 710.106 727.426 732.5 724C754.629 720.867 769.129 708.701 776 687.5C777.853 671.035 772.353 657.535 759.5 647C743.518 634.001 725.184 626.668 704.5 625C670.956 621.986 638.289 625.986 606.5 637C596.091 640.803 585.756 644.803 575.5 649C548.25 664.124 520.572 678.464 492.5 692C473.721 700.595 453.879 706.649 433.5 710C412.452 714.326 392.786 710.992 374.5 700C366.579 693.422 361.079 685.255 358 675.5C357.333 672.2 357.333 668.8 358 665.5C364.469 677.305 374.303 684.472 387.5 687C405.416 688.621 423.082 687.288 440.5 683C453.364 679.267 466.045 674.929 478.5 670C502.298 658.601 525.966 646.933 549.5 635C582.789 618.507 617.789 608.674 654.5 605.5Z" fill="#050606"/>
</svg>
