<svg width="55" height="56" viewBox="0 0 55 56" fill="none" xmlns="http://www.w3.org/2000/svg">
<g clip-path="url(#clip0_5772_33487)">
<g clip-path="url(#clip1_5772_33487)">
<rect x="-7" y="4" width="62" height="62" rx="31" fill="#A61D47"/>
<line x1="-8" y1="35" x2="56" y2="35" stroke="white" stroke-width="2"/>
<line x1="24" y1="3" x2="24" y2="67" stroke="white" stroke-width="2"/>
<circle opacity="0.4" cx="24" cy="35" r="31" fill="url(#paint0_radial_5772_33487)"/>
<path d="M24 29.3104C24.0001 27.2146 24.701 25.1789 25.9911 23.5271C27.2813 21.8753 29.0867 20.7022 31.1203 20.1942C35.76 19.0366 39.9656 23.2387 38.805 27.8807C38.2969 29.914 37.1236 31.7192 35.4716 33.0092C33.8196 34.2991 31.7836 34.9999 29.6875 35L24 35M24 29.3104L24 35M24 29.3104C23.9999 27.2146 23.299 25.1789 22.0089 23.5271C20.7187 21.8753 18.9133 20.7022 16.8797 20.1942C12.24 19.0366 8.03437 23.2387 9.19503 27.8807C9.70308 29.914 10.8764 31.7192 12.5284 33.0092C14.1804 34.2991 16.2164 34.9999 18.3125 35L24 35" stroke="white" stroke-width="2"/>
<path d="M33.0017 48.0584L33.0601 49.0567L35.0567 48.9399L34.9982 47.9416L33.0017 48.0584ZM23.6174 35.9243C28.0805 37.7711 30.4162 40.8173 31.648 43.3999C32.2666 44.6969 32.6068 45.8785 32.7916 46.7316C32.8839 47.1574 32.9371 47.4994 32.9668 47.7301C32.9817 47.8454 32.9907 47.9327 32.9959 47.9886C32.9984 48.0166 33 48.0367 33.0009 48.0484C33.0014 48.0543 33.0016 48.0581 33.0017 48.0598C33.0018 48.0607 33.0018 48.061 33.0018 48.0607C33.0018 48.0606 33.0018 48.0604 33.0017 48.06C33.0017 48.0598 33.0017 48.0594 33.0017 48.0593C33.0017 48.0589 33.0017 48.0584 33.9999 48C34.9982 47.9416 34.9982 47.941 34.9982 47.9405C34.9982 47.9402 34.9981 47.9396 34.9981 47.9392C34.998 47.9382 34.998 47.9372 34.9979 47.9359C34.9977 47.9335 34.9975 47.9305 34.9973 47.927C34.9968 47.9199 34.9962 47.9106 34.9953 47.8992C34.9936 47.8764 34.9911 47.845 34.9875 47.8055C34.9802 47.7265 34.9685 47.6148 34.9504 47.4742C34.9141 47.1929 34.8517 46.7947 34.7463 46.308C34.5356 45.3358 34.1511 44.0022 33.4532 42.539C32.0521 39.6013 29.3877 36.1476 24.3821 34.0762L23.6174 35.9243Z" fill="white"/>
<path d="M23.9997 35.0001C11 39 15 65.4999 15 65.4999" stroke="white" stroke-width="2"/>
</g>
</g>
<defs>
<radialGradient id="paint0_radial_5772_33487" cx="0" cy="0" r="1" gradientUnits="userSpaceOnUse" gradientTransform="translate(24 35) rotate(90) scale(31 67.3344)">
<stop stop-color="#A61D47" stop-opacity="0"/>
<stop offset="1" stop-color="#A61D47"/>
</radialGradient>
<clipPath id="clip0_5772_33487">
<rect width="55" height="56" fill="white"/>
</clipPath>
<clipPath id="clip1_5772_33487">
<rect x="-7" y="4" width="62" height="62" rx="31" fill="white"/>
</clipPath>
</defs>
</svg>
